# xmcd
#
# Track frame offsets:
# 150
# 12647
# 27232
# 45207
# 65612
# 81510
# 91392
# 102997
# 118072
# 131947
# 150384
# 165774
#
# Disc length: 2417 seconds
#
# Revision: 0
# Processed by: cddbd v1.5.1PL0 Copyright (c) Steve Scherf et al.
# Submitted via: MacMP3 Pro 5.0 (http://mp3.act2.co.jp/)
#
DISCID=94096f0c
DTITLE=Dr. John - Dr. John's Gumbo
DYEAR=1900
DGENRE=
TTITLE0=Iko Iko
TTITLE1=Blow Wind Blow
TTITLE2=Big Chief
TTITLE3=Somebody Changed the Lock
TTITLE4=Mess Around
TTITLE5=Let the Good Times Roll
TTITLE6=Junko Partner
TTITLE7=Stackalee
TTITLE8=Tipitina
TTITLE9=Those Lonely, Lonely Nights
TTITLE10=Huey Smith Medley: High Blood Pressure/Don't You Just Know It/Well I'
TTITLE11=Li'l Liza Jane
EXTD=
EXTT0=
EXTT1=
EXTT2=
EXTT3=
EXTT4=
EXTT5=
EXTT6=
EXTT7=
EXTT8=
EXTT9=
EXTT10=
EXTT11=
PLAYORDER=
